<?xml version="1.0" encoding="UTF-8"?> <svg xmlns="http://www.w3.org/2000/svg" id="Layer_2" data-name="Layer 2" viewBox="0 0 835.52 266.01"><defs><style> .cls-1 { fill: none; stroke: #92b6c7; stroke-width: .8px; } .cls-2 { fill: #6b8c9c; } .cls-3 { fill: #92b6c7; } .cls-4 { fill: #7894a3; } </style></defs><g id="Layer_1-2" data-name="Layer 1"><path class="cls-4" d="m828.54,192.94h-3.45v15.81h2.17v-11.18l1.85,11.18h2.35l1.72-11.34v11.34h2.35v-15.81h-3.45l-1.7,11.22-1.83-11.22Zm-12.19,2.26h2.6v13.55h2.48v-13.55h2.6v-2.26h-7.68v2.26Z"></path><path class="cls-2" d="m20.19,244.27c-.55-2.51-1.55-4.4-3.02-5.67-1.46-1.27-3.38-1.9-5.73-1.9-2.19,0-4.05.68-5.57,2.04-1.52,1.36-2.45,3.2-2.79,5.52h17.11Zm3.21,2.54H3c.18,2.46,1.07,4.45,2.67,5.96,1.6,1.52,3.6,2.27,6,2.27,1.7,0,3.22-.44,4.58-1.32,1.35-.88,2.4-2.11,3.14-3.68h3.29c-1.04,2.51-2.5,4.43-4.39,5.77-1.88,1.34-4.06,2.01-6.54,2.01-3.29,0-6.07-1.17-8.34-3.51-2.27-2.34-3.41-5.16-3.41-8.44s1.11-6.28,3.34-8.53c2.23-2.25,5.07-3.37,8.54-3.37s6.17,1.17,8.31,3.51c2.14,2.34,3.22,5.38,3.22,9.11v.21Z"></path><path class="cls-2" d="m26.73,234.6h2.81v2.57c.89-1.03,1.92-1.79,3.09-2.29,1.17-.49,2.51-.74,4.02-.74,1.66,0,3.13.31,4.43.92,1.29.62,2.32,1.5,3.07,2.65.52.81.89,1.76,1.12,2.85.23,1.09.34,2.7.34,4.82v11.81h-2.86v-12.65c0-2.67-.51-4.61-1.53-5.81-1.02-1.2-2.65-1.81-4.9-1.81-1.31,0-2.47.26-3.46.79-.99.53-1.78,1.28-2.35,2.27-.36.62-.61,1.32-.75,2.1-.14.79-.22,2.16-.22,4.12v10.99h-2.81v-22.59Z"></path><path class="cls-2" d="m52.05,245.7c0,2.64.84,4.85,2.51,6.63,1.68,1.78,3.7,2.67,6.07,2.67,2.23,0,4.2-.89,5.91-2.68,1.71-1.79,2.57-3.88,2.57-6.29,0-2.57-.84-4.77-2.52-6.59-1.68-1.82-3.67-2.73-5.95-2.73s-4.37.87-6.06,2.6c-1.68,1.73-2.52,3.86-2.52,6.39m2.03,13.33c.44,1.32,1.23,2.34,2.38,3.07,1.15.73,2.54,1.1,4.18,1.1,2.57,0,4.63-.86,6.18-2.57,1.55-1.71,2.33-4,2.33-6.87v-.6c-1.1,1.49-2.34,2.62-3.74,3.39-1.4.76-2.93,1.14-4.62,1.14-3.39,0-6.21-1.13-8.46-3.4-2.24-2.26-3.37-5.09-3.37-8.47s1.11-6.12,3.33-8.38c2.22-2.26,4.96-3.39,8.23-3.39,1.9,0,3.55.34,4.94,1.03,1.39.68,2.62,1.75,3.68,3.2v-3.69h2.85v18.84c0,3.95-.99,7.03-2.96,9.25-1.98,2.22-4.7,3.33-8.18,3.33-2.56,0-4.76-.63-6.59-1.9-1.83-1.27-3.02-2.96-3.55-5.08h3.37Z"></path><path class="cls-2" d="m76.53,234.6h2.89v22.59h-2.89v-22.59Zm2.89-2.65h-2.89v-4.65h2.89v4.65Z"></path><path class="cls-2" d="m84.13,234.6h2.81v2.57c.89-1.03,1.92-1.79,3.09-2.29,1.17-.49,2.51-.74,4.02-.74,1.66,0,3.13.31,4.43.92,1.29.62,2.32,1.5,3.07,2.65.52.81.89,1.76,1.12,2.85.23,1.09.34,2.7.34,4.82v11.81h-2.86v-12.65c0-2.67-.51-4.61-1.53-5.81-1.02-1.2-2.65-1.81-4.9-1.81-1.31,0-2.47.26-3.46.79-.99.53-1.78,1.28-2.35,2.27-.36.62-.61,1.32-.75,2.1-.14.79-.22,2.16-.22,4.12v10.99h-2.81v-22.59Z"></path><path class="cls-2" d="m126.57,244.27c-.55-2.51-1.55-4.4-3.02-5.67-1.46-1.27-3.38-1.9-5.73-1.9-2.19,0-4.05.68-5.57,2.04-1.52,1.36-2.45,3.2-2.79,5.52h17.11Zm3.21,2.54h-20.4c.18,2.46,1.07,4.45,2.67,5.96,1.6,1.52,3.6,2.27,6,2.27,1.7,0,3.23-.44,4.58-1.32,1.36-.88,2.4-2.11,3.14-3.68h3.29c-1.04,2.51-2.5,4.43-4.39,5.77-1.88,1.34-4.06,2.01-6.54,2.01-3.29,0-6.07-1.17-8.34-3.51-2.27-2.34-3.41-5.16-3.41-8.44s1.11-6.28,3.34-8.53,5.07-3.37,8.53-3.37,6.17,1.17,8.31,3.51c2.14,2.34,3.22,5.38,3.22,9.11v.21Z"></path><path class="cls-2" d="m152.06,244.27c-.55-2.51-1.55-4.4-3.02-5.67-1.46-1.27-3.38-1.9-5.73-1.9-2.19,0-4.05.68-5.57,2.04-1.52,1.36-2.45,3.2-2.79,5.52h17.11Zm3.21,2.54h-20.4c.18,2.46,1.07,4.45,2.67,5.96,1.6,1.52,3.6,2.27,6,2.27,1.7,0,3.22-.44,4.58-1.32,1.36-.88,2.4-2.11,3.14-3.68h3.29c-1.04,2.51-2.5,4.43-4.39,5.77-1.88,1.34-4.06,2.01-6.54,2.01-3.29,0-6.07-1.17-8.34-3.51-2.27-2.34-3.41-5.16-3.41-8.44s1.11-6.28,3.34-8.53c2.23-2.25,5.07-3.37,8.53-3.37s6.17,1.17,8.31,3.51c2.14,2.34,3.21,5.38,3.21,9.11v.21Z"></path><path class="cls-2" d="m161.49,257.19h-2.94v-22.59h2.73v2.6c.71-1,1.49-1.74,2.34-2.21.84-.47,1.83-.71,2.95-.74l.02,3.15c-1.82.17-3.13.71-3.92,1.63-.79.92-1.18,2.43-1.18,4.51v13.64Z"></path><path class="cls-2" d="m169.15,234.6h2.89v22.59h-2.89v-22.59Zm2.89-2.65h-2.89v-4.65h2.89v4.65Z"></path><path class="cls-2" d="m176.74,234.6h2.81v2.57c.89-1.03,1.92-1.79,3.09-2.29,1.17-.49,2.51-.74,4.02-.74,1.66,0,3.13.31,4.43.92,1.29.62,2.32,1.5,3.07,2.65.52.81.89,1.76,1.12,2.85.23,1.09.34,2.7.34,4.82v11.81h-2.86v-12.65c0-2.67-.51-4.61-1.53-5.81-1.02-1.2-2.65-1.81-4.9-1.81-1.31,0-2.47.26-3.46.79-.99.53-1.78,1.28-2.35,2.27-.36.62-.61,1.32-.75,2.1-.14.79-.22,2.16-.22,4.12v10.99h-2.81v-22.59Z"></path><path class="cls-2" d="m202.07,245.7c0,2.64.84,4.85,2.51,6.63,1.68,1.78,3.7,2.67,6.07,2.67,2.23,0,4.2-.89,5.91-2.68,1.71-1.79,2.57-3.88,2.57-6.29,0-2.57-.84-4.77-2.52-6.59-1.68-1.82-3.67-2.73-5.95-2.73s-4.37.87-6.06,2.6c-1.68,1.73-2.52,3.86-2.52,6.39m2.03,13.33c.44,1.32,1.23,2.34,2.38,3.07,1.15.73,2.54,1.1,4.18,1.1,2.57,0,4.63-.86,6.18-2.57,1.55-1.71,2.33-4,2.33-6.87v-.6c-1.09,1.49-2.34,2.62-3.74,3.39-1.4.76-2.93,1.14-4.62,1.14-3.39,0-6.21-1.13-8.46-3.4-2.24-2.26-3.37-5.09-3.37-8.47s1.11-6.12,3.33-8.38c2.22-2.26,4.96-3.39,8.23-3.39,1.9,0,3.55.34,4.94,1.03,1.39.68,2.62,1.75,3.68,3.2v-3.69h2.85v18.84c0,3.95-.99,7.03-2.96,9.25-1.98,2.22-4.7,3.33-8.18,3.33-2.56,0-4.76-.63-6.59-1.9-1.83-1.27-3.02-2.96-3.55-5.08h3.37Z"></path><path class="cls-2" d="m105.68,161.87c0-16.11-5.19-29.57-15.55-40.42-2.79,1.85-5.45,4.03-7.95,6.64-.17.18-.32.38-.49.56,8.42,9,12.65,20.02,12.65,33.09,0,12.14-4.16,22.64-12.43,31.51.08.08.14.17.22.26,2.56,2.69,5.3,4.94,8.18,6.83,4.75-5.04,8.43-10.62,11.03-16.75,2.9-6.84,4.34-14.09,4.34-21.73m-92.47,25.59H.26c5.05,9.7,11.9,17.2,20.57,22.5,8.67,5.3,18.42,7.95,29.26,7.95,7.54,0,14.55-1.34,21.02-4.01,3.85-1.59,7.46-3.63,10.85-6.11-2.8-1.96-5.46-4.21-7.96-6.77-.18-.19-.35-.38-.53-.57-6.84,4.54-14.56,6.85-23.18,6.85-7.74,0-14.63-1.61-20.68-4.81-6.04-3.21-11.51-8.22-16.41-15.04m68.44-73.34c-9.17-6.42-19.89-9.64-32.17-9.64-10.44,0-19.86,2.53-28.26,7.59-8.39,5.06-15.09,12.23-20.09,21.51h12.7c4.5-6.22,9.81-10.9,15.91-14.04,6.1-3.14,12.93-4.7,20.49-4.7,8.6,0,16.28,2.28,23.07,6.73.56-.59,1.12-1.18,1.71-1.76,2.11-2.11,4.33-4,6.64-5.69"></path><path class="cls-3" d="m143.53,195.48c2.83,2.56,5.86,4.65,9.06,6.31,3.81-3.85,7.12-8.31,9.89-13.45h-12.7c-1.93,2.67-4.02,5.04-6.24,7.14m8.3-76.55c-3.24,1.76-6.28,4.03-9.14,6.73,2.71,2.49,5.27,5.42,7.7,8.8h12.95c-3.14-6.03-6.97-11.2-11.5-15.53m-9.23-7.06c-8.62-5.23-18.32-7.86-29.1-7.86-7.54,0-14.55,1.34-21.02,4.01-6.47,2.67-12.3,6.61-17.49,11.8-5.6,5.49-9.84,11.66-12.74,18.51-2.9,6.84-4.34,14.09-4.34,21.73,0,16.38,5.36,30.04,16.08,40.98,10.72,10.94,24.1,16.41,40.14,16.41,10.44,0,19.86-2.53,28.26-7.59.41-.25.8-.52,1.2-.78-3.24-1.96-6.29-4.29-9.17-7-.18.1-.37.21-.55.31-6.1,3.14-12.93,4.7-20.49,4.7-12.26,0-22.67-4.52-31.25-13.56-8.58-9.04-12.87-20.16-12.87-33.35,0-12.39,4.31-23.08,12.92-32.07,8.61-8.99,18.99-13.49,31.13-13.49,7.57,0,14.32,1.55,20.27,4.61.03-.03.05-.06.08-.08,2.79-2.79,5.78-5.21,8.94-7.28"></path><path class="cls-2" d="m209.05,133.78c-4.9-6.82-10.37-11.83-16.41-15.04-6.04-3.21-12.93-4.81-20.68-4.81-12.14,0-22.51,4.5-31.13,13.49-8.62,8.99-12.92,19.68-12.92,32.07,0,13.19,4.29,24.3,12.87,33.35,8.58,9.04,19,13.56,31.25,13.56,7.55,0,14.38-1.57,20.49-4.7,6.1-3.14,11.4-7.82,15.91-14.04h12.7c-5,9.28-11.69,16.45-20.09,21.51-8.4,5.06-17.82,7.59-28.26,7.59-16.04,0-29.42-5.47-40.14-16.41-10.72-10.94-16.08-24.6-16.08-40.98,0-7.64,1.45-14.89,4.35-21.73,2.9-6.84,7.14-13.01,12.74-18.51,5.2-5.19,11.03-9.13,17.5-11.8,6.47-2.67,13.47-4.01,21.02-4.01,10.84,0,20.59,2.65,29.26,7.95,8.66,5.3,15.52,12.8,20.57,22.5h-12.95Z"></path><path class="cls-2" d="m13.2,187.46H.26c5.05,9.7,11.9,17.2,20.57,22.5,8.67,5.3,18.42,7.95,29.26,7.95,7.54,0,14.55-1.34,21.02-4.01,3.85-1.59,7.46-3.63,10.85-6.11-2.8-1.96-5.46-4.21-7.96-6.77-.18-.19-.35-.38-.53-.57-6.84,4.54-14.56,6.85-23.18,6.85-7.74,0-14.63-1.6-20.68-4.81-6.04-3.21-11.51-8.22-16.41-15.04m61.79-67.65c2.11-2.11,4.32-4,6.64-5.69-9.17-6.42-19.89-9.64-32.18-9.64-10.44,0-19.86,2.53-28.26,7.59-2.62,1.58-5.05,3.39-7.34,5.38V0H.02v172.71h13.85v-39.19c4.49-6.19,9.78-10.85,15.86-13.98,6.1-3.14,12.93-4.7,20.49-4.7,8.6,0,16.28,2.28,23.07,6.73.56-.59,1.12-1.18,1.71-1.76m30.68,42.06c0-16.1-5.19-29.57-15.55-40.42-2.79,1.85-5.45,4.03-7.95,6.64-.17.18-.32.38-.49.56,8.42,9,12.65,20.02,12.65,33.09,0,12.14-4.16,22.64-12.43,31.51.08.08.14.17.22.26,2.56,2.69,5.3,4.94,8.18,6.83,4.75-5.04,8.43-10.62,11.03-16.75,2.9-6.84,4.35-14.09,4.35-21.73"></path><line class="cls-1" x1="270.57" y1="102.63" x2="270.57" y2="262.37"></line><path class="cls-4" d="m795.05,202.07c3.92,0,5.63,2.21,5.63,7.23v6.93c0,5.62-2.51,7.43-6.63,7.43h-4.32v-21.6h5.32Zm17.98,60.27c-1.1-2.61-1.21-5.12-1.21-8.54v-10.85c0-7.33-1.81-12.66-7.33-14.97,4.92-2.31,7.23-7.03,7.23-14.26v-5.53c0-10.85-4.92-16.17-16.37-16.17h-16.68v70.32h11.05v-28.63h3.82c5.02,0,7.23,2.41,7.23,8.94v11.05c0,5.73.4,6.83,1,8.64h11.25Zm-60.27-60.27h19.09v-10.05h-30.14v70.32h30.14v-10.05h-19.09v-20.59h15.17v-10.05h-15.17v-19.59Zm-30.14,60.27h11.05v-70.32h-11.05v70.32Zm-38.98-53.44c0,20.09,21.6,22.8,21.6,37.27,0,5.02-2.21,6.83-5.73,6.83s-5.73-1.81-5.73-6.83v-5.02h-10.45v4.32c0,11.25,5.62,17.68,16.47,17.68s16.48-6.43,16.48-17.68c0-20.09-21.6-22.8-21.6-37.27,0-5.02,2.01-6.93,5.53-6.93s5.52,1.91,5.52,6.93v2.91h10.45v-2.21c0-11.25-5.52-17.68-16.27-17.68s-16.27,6.43-16.27,17.68m-23.61-4.42l5.32,35.56h-10.65l5.32-35.56Zm8.64-12.46h-16.17l-11.25,70.32h10.15l1.91-12.76h13.56l1.91,12.76h11.15l-11.25-70.32Zm-50.43,10.05h19.09v-10.05h-30.14v70.32h30.14v-10.05h-19.09v-20.59h15.17v-10.05h-15.17v-19.59Zm-65.69,0h11.55v60.27h11.05v-60.27h11.55v-10.05h-34.15v10.05Zm-37.47,43.4c0,11.25,5.93,17.68,16.78,17.68s16.78-6.43,16.78-17.68v-36.57c0-11.25-5.93-17.68-16.78-17.68s-16.78,6.43-16.78,17.68v36.57Zm11.05-37.27c0-5.02,2.21-6.93,5.73-6.93s5.73,1.91,5.73,6.93v37.97c0,5.02-2.21,6.93-5.73,6.93s-5.73-1.91-5.73-6.93v-37.97Zm-32.75,25.01h5.02v12.96c0,5.02-2.21,6.83-5.73,6.83s-5.73-1.81-5.73-6.83v-37.97c0-5.02,2.21-6.93,5.73-6.93s5.73,1.91,5.73,6.93v7.53h10.45v-6.83c0-11.25-5.63-17.68-16.48-17.68s-16.47,6.43-16.47,17.68v36.57c0,11.25,5.63,17.68,16.47,17.68s16.48-6.43,16.48-17.68v-22.3h-15.47v10.05Zm-71.21-31.14h11.55v60.27h11.05v-60.27h11.55v-10.05h-34.15v10.05Zm-35.76,6.83c0,20.09,21.6,22.8,21.6,37.27,0,5.02-2.21,6.83-5.73,6.83s-5.73-1.81-5.73-6.83v-5.02h-10.45v4.32c0,11.25,5.63,17.68,16.47,17.68s16.48-6.43,16.48-17.68c0-20.09-21.6-22.8-21.6-37.27,0-5.02,2.01-6.93,5.52-6.93s5.53,1.91,5.53,6.93v2.91h10.45v-2.21c0-11.25-5.53-17.68-16.27-17.68s-16.27,6.43-16.27,17.68m-39.08-16.88v53.54c0,11.25,5.62,17.68,16.47,17.68s16.47-6.43,16.47-17.68v-53.54h-10.45v54.25c0,5.02-2.21,6.83-5.73,6.83s-5.73-1.81-5.73-6.83v-54.25h-11.05Zm-28.23,70.32c1.81.2,3.31.2,5.32.2,8.34,0,15.87-3.62,15.87-17.68v-52.84h-11.05v53.64c0,5.43-2.81,6.73-6.33,6.73-1.2,0-2.61,0-3.82-.1v10.05Z"></path><path class="cls-4" d="m791.29,114.4h20.71v-10.9h-32.69v76.28h32.69v-10.9h-20.71v-22.34h16.46v-10.9h-16.46v-21.25Zm-38.03,0c4.25,0,6.1,2.4,6.1,7.85v7.52c0,6.1-2.72,8.06-7.19,8.06h-4.69v-23.43h5.78Zm19.51,65.39c-1.2-2.83-1.31-5.56-1.31-9.26v-11.77c0-7.96-1.96-13.73-7.96-16.24,5.34-2.51,7.85-7.63,7.85-15.47v-5.99c0-11.77-5.34-17.55-17.76-17.55h-18.09v76.28h11.99v-31.06h4.14c5.45,0,7.85,2.61,7.85,9.7v11.99c0,6.21.44,7.41,1.09,9.37h12.21Zm-65.39-65.39h20.71v-10.9h-32.69v76.28h32.69v-10.9h-20.71v-22.34h16.46v-10.9h-16.46v-21.25Zm-46.53,32.69h13.62v32.69h12.21v-76.28h-12.21v32.69h-13.62v-32.69h-11.99v76.28h11.99v-32.69Zm-54.27-32.69h12.53v65.39h11.99v-65.39h12.53v-10.9h-37.05v10.9Zm-38.7,33.78h5.45v14.06c0,5.45-2.4,7.41-6.21,7.41s-6.21-1.96-6.21-7.41v-41.19c0-5.45,2.4-7.52,6.21-7.52s6.21,2.07,6.21,7.52v8.17h11.33v-7.41c0-12.21-6.1-19.18-17.87-19.18s-17.87,6.97-17.87,19.18v39.67c0,12.2,6.1,19.18,17.87,19.18s17.87-6.98,17.87-19.18v-24.19h-16.78v10.9Zm-38.9,31.6h12.31v-76.28h-10.68v45.66l-12.31-45.66h-15.04v76.28h10.79v-55.25l14.93,55.25Zm-46.31,0h11.99v-76.28h-11.99v76.28Zm-42.28-65.39h12.53v65.39h11.99v-65.39h12.53v-10.9h-37.05v10.9Zm-38.79,0h12.53v65.39h11.99v-65.39h12.53v-10.9h-37.05v10.9Zm-24.63,0h20.71v-10.9h-32.69v76.28h32.69v-10.9h-20.71v-22.34h16.46v-10.9h-16.46v-21.25Zm-36.51,33.78h5.45v14.06c0,5.45-2.4,7.41-6.21,7.41s-6.21-1.96-6.21-7.41v-41.19c0-5.45,2.4-7.52,6.21-7.52s6.21,2.07,6.21,7.52v8.17h11.33v-7.41c0-12.21-6.1-19.18-17.87-19.18s-17.87,6.97-17.87,19.18v39.67c0,12.2,6.1,19.18,17.87,19.18s17.87-6.98,17.87-19.18v-24.19h-16.78v10.9Z"></path></g></svg> 